HIERARCHY
ROOT Hips
{
	OFFSET 0.000000 0.000000 0.000000
	CHANNELS 6 Xposition Yposition Zposition Zrotation Yrotation Xrotation 
	JOINT LeftUpLeg_virtual
	{
		OFFSET 0.000000 0.000000 0.000000
		CHANNELS 3 Zrotation Yrotation Xrotation
		JOINT LeftUpLeg
		{
			OFFSET 8.479694 -4.795517 -0.379053
			CHANNELS 3 Zrotation Yrotation Xrotation
			JOINT LeftLeg
			{
				OFFSET 0.485052 -32.551468 0.112863
				CHANNELS 3 Zrotation Yrotation Xrotation
				JOINT LeftFoot
				{
					OFFSET 0.438033 -32.635670 -3.012641
					CHANNELS 3 Zrotation Yrotation Xrotation
					JOINT LeftToeBase
					{
						OFFSET 0.970169 -13.225353 11.864223
						CHANNELS 3 Zrotation Yrotation Xrotation
						End Site
						{
							OFFSET 0.000000 0.000000 0.000000
						}
					}
				}
			}
		}
	}
	JOINT RightUpLeg_virtual
	{
		OFFSET 0.000000 0.000000 0.000000
		CHANNELS 3 Zrotation Yrotation Xrotation
		JOINT RightUpLeg
		{
			OFFSET -8.479694 -4.795517 -0.379053
			CHANNELS 3 Zrotation Yrotation Xrotation
			JOINT RightLeg
			{
				OFFSET -0.484100 -32.551483 0.112903
				CHANNELS 3 Zrotation Yrotation Xrotation
				JOINT RightFoot
				{
					OFFSET -0.438985 -32.635651 -3.012681
					CHANNELS 3 Zrotation Yrotation Xrotation
					JOINT RightToeBase
					{
						OFFSET -0.970169 -13.225354 11.864223
						CHANNELS 3 Zrotation Yrotation Xrotation
						End Site
						{
							OFFSET 0.000000 0.000000 0.000000
						}
					}
				}
			}
		}
	}
	JOINT Spine_virtual
	{
		OFFSET 0.000000 0.000000 0.000000
		CHANNELS 3 Zrotation Yrotation Xrotation
		JOINT Spine
		{
			OFFSET 0.000000 7.722015 1.166203
			CHANNELS 3 Zrotation Yrotation Xrotation
			JOINT Spine1
			{
				OFFSET 0.000000 12.024086 0.248766
				CHANNELS 3 Zrotation Yrotation Xrotation
				JOINT Spine2
				{
					OFFSET -0.000000 11.503036 -0.491240
					CHANNELS 3 Zrotation Yrotation Xrotation
					JOINT Neck_virtual
					{
						OFFSET 0.000000 0.000000 0.000000
						CHANNELS 3 Zrotation Yrotation Xrotation
						JOINT Neck
						{
							OFFSET 0.000000 18.430687 -3.123054
							CHANNELS 3 Zrotation Yrotation Xrotation
							JOINT Head
							{
								OFFSET -0.000000 9.051071 1.034021
								CHANNELS 3 Zrotation Yrotation Xrotation
								End Site
								{
									OFFSET 0.000000 0.000000 0.000000
								}
							}
						}
					}
					JOINT LeftShoulder_virtual
					{
						OFFSET 0.000000 0.000000 0.000000
						CHANNELS 3 Zrotation Yrotation Xrotation
						JOINT LeftShoulder
						{
							OFFSET 6.197824 13.665230 -4.064723
							CHANNELS 3 Zrotation Yrotation Xrotation
							JOINT LeftArm
							{
								OFFSET 7.778132 -0.187073 -1.709282
								CHANNELS 3 Zrotation Yrotation Xrotation
								JOINT LeftForeArm
								{
									OFFSET 21.954697 0.000000 -2.041093
									CHANNELS 3 Zrotation Yrotation Xrotation
									JOINT LeftHand
									{
										OFFSET 22.992908 0.000000 -0.870901
										CHANNELS 3 Zrotation Yrotation Xrotation
										End Site
										{
											OFFSET 0.000000 0.000000 0.000000
										}
									}
								}
							}
						}
					}
					JOINT RightShoulder_virtual
					{
						OFFSET 0.000000 0.000000 0.000000
						CHANNELS 3 Zrotation Yrotation Xrotation
						JOINT RightShoulder
						{
							OFFSET -6.197824 13.665230 -4.064723
							CHANNELS 3 Zrotation Yrotation Xrotation
							JOINT RightArm
							{
								OFFSET -7.778132 -0.187073 -1.709282
								CHANNELS 3 Zrotation Yrotation Xrotation
								JOINT RightForeArm
								{
									OFFSET -21.954697 0.000000 -2.041093
									CHANNELS 3 Zrotation Yrotation Xrotation
									JOINT RightHand
									{
										OFFSET -22.992908 0.000000 -0.870901
										CHANNELS 3 Zrotation Yrotation Xrotation
										End Site
										{
											OFFSET 0.000000 0.000000 0.000000
										}
									}
								}
							}
						}
					}
				}
			}
		}
	}
}
MOTION
Frames: 9
Frame Time: 0.033333
-35.658108 79.312431 165.371841 179.706703 11.975400 -179.070389 -3.299868 -2.239553 13.994813 -0.353557 -0.675242 -33.438369 13.647421 6.445048 34.230046 -6.231281 -7.901785 -7.899401 0.000000 0.000000 0.000000 2.090956 -4.166866 12.310373 -1.965709 7.386784 -34.627836 -1.551213 4.789719 35.048976 3.215639 5.411428 -11.025997 0.000000 0.000000 0.000000 4.423849 -0.787478 1.084289 -1.348201 0.863896 -5.139890 -0.145118 -1.988535 9.701325 0.046653 -0.140236 0.153808 -0.428229 -0.735863 12.378001 2.480046 -0.381971 -2.783210 0.000000 0.000000 0.000000 0.726399 0.359424 9.193431 -11.850081 -5.524060 0.195452 -64.116932 -11.666153 8.119638 -0.415737 -0.045891 10.010858 0.000000 0.000000 0.000000 -3.049254 1.910710 8.675247 29.035083 0.145695 5.335375 41.856659 6.260516 -4.153356 -5.469449 21.419149 -4.529317 0.000000 0.000000 0.000000 
-35.696548 79.341103 165.328293 179.556220 12.065679 -178.805733 -3.485429 -1.691096 14.101117 -0.327507 -0.544240 -32.849149 13.655146 6.385756 34.337099 -6.211226 -7.904326 -7.603553 0.000000 0.000000 0.000000 1.873984 -4.146155 12.463519 -2.167368 7.223173 -34.108974 -1.634277 5.458638 35.226024 3.082056 5.206462 -10.543288 0.000000 0.000000 0.000000 4.381282 -0.608370 0.753399 -1.366425 0.698357 -5.286857 -0.150011 -2.083893 9.636791 0.033320 -0.168983 0.388263 -0.350557 -0.395585 12.413572 2.540050 -0.494725 -2.841463 0.000000 0.000000 0.000000 0.807845 0.169902 9.295589 -11.895928 -5.540956 0.148700 -64.102780 -11.676608 8.012988 -0.390509 -0.163014 9.904557 0.000000 0.000000 0.000000 -2.954053 2.001761 8.795789 29.013441 -0.053045 5.198428 42.328021 5.181388 -3.553545 -5.337938 21.270205 -4.342687 0.000000 0.000000 0.000000 
-35.759396 79.354958 165.285217 179.516154 12.303069 -178.799353 -3.405639 -1.377624 13.827890 -0.469457 -0.652467 -32.558224 13.586933 6.420400 34.289896 -6.027810 -7.927731 -7.713357 0.000000 0.000000 0.000000 1.841546 -3.779384 12.206401 -2.182799 7.206647 -33.865331 -1.654870 5.503699 35.278002 3.093957 5.139522 -10.439274 0.000000 0.000000 0.000000 4.410418 -0.372361 0.537112 -1.405015 0.563131 -5.139706 -0.148843 -2.137667 9.794653 0.082636 -0.180032 0.208367 -0.248933 -0.480974 12.484010 2.631773 -0.478232 -2.717760 0.000000 0.000000 0.000000 0.920713 0.070072 9.229318 -12.087911 -5.595945 0.099018 -64.080732 -11.627876 8.022604 -0.475250 -0.369614 9.955848 0.000000 0.000000 0.000000 -2.919388 1.977957 8.810912 28.945843 -0.464909 5.031219 43.191183 3.652005 -2.654645 -5.353184 21.316993 -4.354241 0.000000 0.000000 0.000000 
-35.821274 79.340446 165.284882 179.413497 12.720149 -178.796813 -2.998860 -1.102250 13.591912 -1.017011 -0.898899 -32.348387 13.512408 6.451050 34.279599 -5.661799 -7.843883 -7.881119 0.000000 0.000000 0.000000 1.802764 -3.439936 11.951587 -2.234101 7.161067 -33.674988 -1.670278 5.606261 35.360419 3.232046 5.147396 -10.342915 0.000000 0.000000 0.000000 4.399995 -0.098482 0.531253 -1.543447 0.547095 -4.971461 -0.006503 -2.123852 9.606352 0.045224 -0.177014 0.432424 -0.234271 -0.613936 12.363862 2.731206 -0.601298 -2.822825 0.000000 0.000000 0.000000 0.899857 0.227298 9.071917 -12.262201 -5.710208 0.028504 -63.885560 -11.672535 8.210231 -0.474761 -0.717566 10.113141 0.000000 0.000000 0.000000 -2.886269 1.763554 8.673320 28.792321 -0.898912 4.638504 43.983242 2.226001 -1.203980 -5.200397 21.196630 -4.355475 0.000000 0.000000 0.000000 
-35.840172 79.306808 165.304443 179.468398 13.093205 -178.782046 -3.204417 -0.873374 13.483632 -0.670821 -1.012383 -32.281264 13.478204 6.568702 34.391437 -5.312809 -7.865648 -8.070655 0.000000 0.000000 0.000000 1.882190 -3.186185 11.773885 -2.297746 7.117765 -33.605538 -1.568888 5.624604 35.474981 3.402178 5.136993 -10.317890 0.000000 0.000000 0.000000 4.475586 0.106087 0.488857 -1.634328 0.472715 -4.599401 -0.016259 -2.124905 9.709508 0.121786 -0.194630 0.201099 -0.154661 -0.476094 12.314458 2.842674 -0.674487 -3.153155 0.000000 0.000000 0.000000 1.077279 0.144453 8.836802 -12.419185 -5.662588 -0.143508 -63.746477 -11.164780 8.794578 -0.607652 -1.595439 10.267245 0.000000 0.000000 0.000000 -2.715474 1.661757 8.448615 28.338931 -1.282248 4.133979 44.488768 1.102641 0.006425 -4.857053 21.057907 -4.190172 0.000000 0.000000 0.000000 
-35.849564 79.266220 165.363907 179.550401 13.433821 -178.781895 -2.972827 -0.771810 13.492999 -0.732418 -1.304907 -32.371149 13.448756 6.577568 34.576286 -4.901961 -7.819353 -8.189358 0.000000 0.000000 0.000000 2.013683 -3.034446 11.679915 -2.390578 7.036001 -33.648387 -1.472169 5.557141 35.660588 3.607079 5.158592 -10.345833 0.000000 0.000000 0.000000 4.479272 0.140633 0.686060 -1.712816 0.415674 -4.218944 0.115488 -2.104749 9.468944 0.058080 -0.137080 0.308493 0.048900 -0.548720 12.085250 3.133473 -0.762094 -3.073832 0.000000 0.000000 0.000000 1.125743 -0.012440 8.717551 -12.368621 -5.749733 -0.257956 -63.333844 -10.638591 9.429187 -0.636101 -2.673143 10.830896 0.000000 0.000000 0.000000 -2.609742 1.764280 8.136281 27.754527 -1.403616 3.881521 44.815583 0.755356 0.717933 -4.671286 20.325147 -4.167183 0.000000 0.000000 0.000000 
-35.833675 79.242157 165.481369 179.438208 13.776564 -178.818314 -2.996458 -0.716759 13.609917 -0.665026 -1.588903 -32.656709 13.445102 6.626274 34.852645 -4.573653 -7.804735 -8.192168 0.000000 0.000000 0.000000 2.132466 -2.977796 11.673841 -2.580251 6.878370 -33.835651 -1.394882 5.626544 35.901134 3.813983 5.211146 -10.416594 0.000000 0.000000 0.000000 4.276270 0.099295 1.074980 -1.740317 0.416800 -3.724621 0.221153 -2.083555 9.150185 0.074695 -0.157067 0.334471 0.095291 -0.618138 11.782776 3.273852 -0.886248 -3.521180 0.000000 0.000000 0.000000 1.188887 0.123333 8.258098 -12.192034 -5.589950 -0.342528 -62.819572 -9.993228 9.982352 -0.836898 -3.960806 10.903764 0.000000 0.000000 0.000000 -2.530143 1.774787 7.855644 26.946237 -1.520030 3.455110 44.966557 0.928020 0.602383 -4.354133 19.587535 -4.137893 0.000000 0.000000 0.000000 
-35.853531 79.234543 165.730576 179.494831 13.982849 -178.838217 -2.759250 -0.824194 13.824428 -0.611081 -1.853696 -33.149507 13.119010 6.703454 35.175119 -4.132398 -7.538491 -8.073183 0.000000 0.000000 0.000000 2.443123 -3.064866 11.689782 -2.846374 6.835159 -34.134280 -1.111723 5.943201 36.164872 3.697489 5.031384 -10.430562 0.000000 0.000000 0.000000 4.258965 0.105359 1.675802 -1.607652 0.513563 -3.060345 0.339305 -2.049382 8.970041 0.050714 -0.200034 0.264866 0.236417 -0.602187 11.333793 3.565844 -0.850417 -4.383164 0.000000 0.000000 0.000000 1.302521 0.081479 7.835241 -11.859705 -5.446292 -0.419193 -62.421522 -9.451462 10.314944 -0.937447 -5.292760 11.020887 0.000000 0.000000 0.000000 -2.430751 1.489102 7.330483 26.118515 -1.670404 3.128297 45.170039 1.463821 -0.227706 -4.072333 19.095819 -4.229038 0.000000 0.000000 0.000000 
-35.946526 79.239456 166.213333 179.545142 14.091144 -178.877067 -2.699148 -1.168743 14.088447 -0.209712 -2.040011 -33.830023 12.789452 7.076147 35.535114 -3.904064 -7.434541 -7.778777 0.000000 0.000000 0.000000 2.873645 -3.381399 11.710668 -3.241560 6.817942 -34.605918 -0.856451 6.324352 36.397798 3.590473 4.979146 -10.290700 0.000000 0.000000 0.000000 4.335419 -0.237510 2.697548 -1.394605 0.602835 -2.262201 0.440155 -2.036615 8.541325 0.055598 -0.207574 0.208320 0.274113 -0.870864 10.799865 3.757707 -0.835197 -5.431435 0.000000 0.000000 0.000000 1.265723 0.219553 7.311317 -11.507144 -5.152909 -0.419350 -62.226090 -9.270139 10.573351 -0.839505 -6.249255 11.071518 0.000000 0.000000 0.000000 -2.434308 1.561685 6.662452 25.311163 -1.783767 2.916175 45.410315 2.400823 -1.488887 -3.774072 18.709625 -4.261366 0.000000 0.000000 0.000000 
